<svg width="100" height="131" viewBox="0 0 100 131" fill="none" xmlns="http://www.w3.org/2000/svg">
<path d="M9 0L100 18V115.5L9 94V0Z" fill="#8C8888"/>
<path d="M0 15L91 33V130.5L0 109V15Z" fill="#A09A9A"/>
<path d="M40.5703 84.3203H29.8477L27.4395 91H23.959L33.7324 65.4062H36.6855L46.4766 91H43.0137L40.5703 84.3203ZM30.8672 81.543H39.5684L35.209 69.5723L30.8672 81.543ZM61.1543 91C60.9668 90.625 60.8145 89.957 60.6973 88.9961C59.1855 90.5664 57.3809 91.3516 55.2832 91.3516C53.4082 91.3516 51.8672 90.8242 50.6602 89.7695C49.4648 88.7031 48.8672 87.3555 48.8672 85.7266C48.8672 83.7461 49.6172 82.2109 51.1172 81.1211C52.6289 80.0195 54.75 79.4688 57.4805 79.4688H60.6445V77.9746C60.6445 76.8379 60.3047 75.9355 59.625 75.2676C58.9453 74.5879 57.9434 74.248 56.6191 74.248C55.459 74.248 54.4863 74.541 53.7012 75.127C52.916 75.7129 52.5234 76.4219 52.5234 77.2539H49.2539C49.2539 76.3047 49.5879 75.3906 50.2559 74.5117C50.9355 73.6211 51.8496 72.918 52.998 72.4023C54.1582 71.8867 55.4297 71.6289 56.8125 71.6289C59.0039 71.6289 60.7207 72.1797 61.9629 73.2812C63.2051 74.3711 63.8496 75.877 63.8965 77.7988V86.5527C63.8965 88.2988 64.1191 89.6875 64.5645 90.7188V91H61.1543ZM55.7578 88.5215C56.7773 88.5215 57.7441 88.2578 58.6582 87.7305C59.5723 87.2031 60.2344 86.5176 60.6445 85.6738V81.7715H58.0957C54.1113 81.7715 52.1191 82.9375 52.1191 85.2695C52.1191 86.2891 52.459 87.0859 53.1387 87.6602C53.8184 88.2344 54.6914 88.5215 55.7578 88.5215Z" fill="black"/>
</svg>
